<svg xmlns="http://www.w3.org/2000/svg" width="16.5" height="16.521" viewBox="0 0 16.5 16.521">
  <path id="Icon_zocial-call" data-name="Icon zocial-call" d="M3.3,6.188a1.216,1.216,0,0,1,.309-.66L6.087,3.053q.289-.248.433.083l2,3.754a.54.54,0,0,1-.1.639l-.908.908a1.026,1.026,0,0,0-.289.639,3.149,3.149,0,0,0,.639,1.588,13.564,13.564,0,0,0,1.258,1.651l.639.659c.193.193.44.43.743.712A12.454,12.454,0,0,0,12,14.8a3.346,3.346,0,0,0,1.64.691.9.9,0,0,0,.66-.268l1.073-1.073a.453.453,0,0,1,.618-.083L19.6,16.193a.3.3,0,0,1,.165.217.263.263,0,0,1-.083.237l-2.475,2.475a1.212,1.212,0,0,1-.659.309,4.99,4.99,0,0,1-2.28-.278,10.316,10.316,0,0,1-2.351-1.124q-1.083-.7-2.011-1.423T8.419,15.368l-.536-.516q-.206-.206-.547-.567T6.149,12.862a20.717,20.717,0,0,1-1.465-2.073,12.094,12.094,0,0,1-1.073-2.3A4.893,4.893,0,0,1,3.3,6.188Z" transform="translate(-3.267 -2.947)" fill="#29335c"/>
</svg>
