<svg xmlns="http://www.w3.org/2000/svg" width="15.808" height="15.811" viewBox="0 0 15.808 15.811">
  <g id="Icon_ionic-ios-chatboxes" data-name="Icon ionic-ios-chatboxes" transform="translate(-3.375 -3.375)">
    <path id="Path_3564" data-name="Path 3564" d="M21.557,11.981H13.134a1.45,1.45,0,0,0-1.448,1.448v5.865a1.447,1.447,0,0,0,1.448,1.444h4.82a.415.415,0,0,1,.289.122l2.395,2.208c.133.129.353.076.353-.11V21.035c0-.228.144-.3.372-.3H21.4A1.582,1.582,0,0,0,23,19.29V13.429A1.442,1.442,0,0,0,21.557,11.981Z" transform="translate(-3.818 -3.954)" />
    <path id="Path_3565" data-name="Path 3565" d="M8.179,7.1h6.743V4.614a1.239,1.239,0,0,0-1.239-1.239H4.614A1.239,1.239,0,0,0,3.375,4.614v6.279a1.239,1.239,0,0,0,1.239,1.239H6.936v-3.8A1.245,1.245,0,0,1,8.179,7.1Z" transform="translate(0 0)" />
  </g>
</svg>
