<svg id="Group_5088" data-name="Group 5088" xmlns="http://www.w3.org/2000/svg" width="19.997" height="14.997" viewBox="0 0 19.997 14.997">
  <g id="Group_5087" data-name="Group 5087" transform="translate(0 0)">
    <path id="Path_3445" data-name="Path 3445" d="M320.833,277.333c-.452,0-.833.572-.833,1.25s.382,1.25.833,1.25.833-.572.833-1.25S321.285,277.333,320.833,277.333Z" transform="translate(-307.502 -269.001)" />
    <path id="Path_3446" data-name="Path 3446" d="M215,171.917c0-.677-.382-1.25-.833-1.25s-.833.572-.833,1.25.382,1.25.833,1.25S215,172.594,215,171.917Z" transform="translate(-205.002 -166.501)"/>
    <path id="Path_3447" data-name="Path 3447" d="M19.58,69.416A.416.416,0,0,0,20,69V65.666A1.668,1.668,0,0,0,18.33,64H1.666A1.668,1.668,0,0,0,0,65.666V69a.416.416,0,0,0,.417.417,2.083,2.083,0,0,1,0,4.166A.416.416,0,0,0,0,74v3.333A1.668,1.668,0,0,0,1.666,79H18.33A1.668,1.668,0,0,0,20,77.331V74a.416.416,0,0,0-.417-.417,2.083,2.083,0,0,1,0-4.166Zm-13.748,7.5a.417.417,0,1,1-.833,0v-.833a.417.417,0,1,1,.833,0v.833Zm0-3.333a.417.417,0,1,1-.833,0v-.833a.417.417,0,1,1,.833,0v.833Zm0-3.333a.417.417,0,1,1-.833,0v-.833a.417.417,0,1,1,.833,0v.833Zm0-3.333a.417.417,0,1,1-.833,0v-.937a.417.417,0,0,1,.833,0v.937Zm1.666,2.5a1.912,1.912,0,0,1,1.666-2.083,2.135,2.135,0,0,1,0,4.166A1.912,1.912,0,0,1,7.5,69.416Zm1.249,6.249a.417.417,0,0,1-.346-.648l5-7.5a.417.417,0,1,1,.693.462l-5,7.5A.416.416,0,0,1,8.748,75.665Zm4.583,0a2.135,2.135,0,0,1,0-4.166,2.135,2.135,0,0,1,0,4.166Z" transform="translate(0 -64)" />
  </g>
</svg>
