<svg xmlns="http://www.w3.org/2000/svg" width="15.749" height="15.75" viewBox="0 0 15.749 15.75">
  <g id="discount_3_" data-name="discount (3)" transform="translate(-0.01 0)">
    <path id="Path_1025" data-name="Path 1025" d="M15.036,7.875l.691-1.8a.493.493,0,0,0-.15-.559L14.079,4.3l-.3-1.907a.492.492,0,0,0-.409-.408l-1.907-.3L10.246.182a.493.493,0,0,0-.558-.15l-1.8.692L6.083.033a.491.491,0,0,0-.558.15L4.31,1.682l-1.907.3a.493.493,0,0,0-.408.408L1.692,4.3.193,5.515a.492.492,0,0,0-.15.558l.691,1.8-.691,1.8a.491.491,0,0,0,.15.558l1.5,1.214.3,1.907a.492.492,0,0,0,.408.409l1.907.3,1.215,1.5a.49.49,0,0,0,.559.15l1.8-.69,1.8.691a.493.493,0,0,0,.559-.151l1.214-1.5,1.907-.3a.493.493,0,0,0,.409-.409l.3-1.907,1.5-1.214a.491.491,0,0,0,.15-.558Z" transform="translate(0 0)" fill="#21e4c0"/>
    <g id="Group_4922" data-name="Group 4922" transform="translate(4.932 3.937)">
      <path id="Path_1026" data-name="Path 1026" d="M161.5,130.988a1.476,1.476,0,1,1,1.476-1.476A1.478,1.478,0,0,1,161.5,130.988Zm0-1.969a.492.492,0,1,0,.492.492A.492.492,0,0,0,161.5,129.019Z" transform="translate(-160.022 -128.034)" fill="#fafafa"/>
      <path id="Path_1027" data-name="Path 1027" d="M257.5,290.988a1.477,1.477,0,1,1,1.476-1.477A1.478,1.478,0,0,1,257.5,290.988Zm0-1.969a.492.492,0,1,0,.492.492A.494.494,0,0,0,257.5,289.019Z" transform="translate(-253.069 -283.113)" fill="#fafafa"/>
      <path id="Path_1028" data-name="Path 1028" d="M160.528,135.892a.492.492,0,0,1-.4-.779l4.922-6.89a.492.492,0,0,1,.8.572l-4.922,6.89A.494.494,0,0,1,160.528,135.892Z" transform="translate(-160.036 -128.017)" fill="#fafafa"/>
    </g>
  </g>
</svg>
