<svg xmlns="http://www.w3.org/2000/svg" width="18" height="18" viewBox="0 0 18 18">
  <g id="noun_edit_551291" transform="translate(0 -0.333)">
    <g id="Group_5200" data-name="Group 5200">
      <g id="Group_5199" data-name="Group 5199">
        <rect id="Rectangle_4035" data-name="Rectangle 4035" width="18" height="18" transform="translate(0 0.333)" fill="none"/>
        <path id="Path_3566" data-name="Path 3566" d="M16.825,6.635l-6.058,6.058-2.754-.013L8,9.927l6.058-6.058Zm1.036-3.8c-.764-.764-1.712-1.055-2.116-.651l-1.09,1.09,2.767,2.767,1.09-1.09c.4-.4.113-1.351-.651-2.116Z" transform="translate(-1.889 -0.472)" fill="#21e4c0" fill-rule="evenodd"/>
        <path id="Path_3567" data-name="Path 3567" d="M9.639,2h-6.8A.843.843,0,0,0,2,2.843V16.435a.843.843,0,0,0,.843.843H16.435a.843.843,0,0,0,.843-.843v-6.8H15.75v6.116a0,0,0,0,1,.005-.005H3.523a0,0,0,0,1,.005.005V3.523a0,0,0,0,1-.005.005H9.639Z" transform="translate(-0.472 -0.472)" fill="#21e4c0" fill-rule="evenodd"/>
      </g>
    </g>
  </g>
</svg>
