<svg xmlns="http://www.w3.org/2000/svg" width="16.5" height="11.138" viewBox="0 0 16.5 11.138">
  <path id="Icon_zocial-email" data-name="Icon zocial-email" d="M.072,14.219V5.054q0-.016.048-.3L5.514,9.366.136,14.538a1.348,1.348,0,0,1-.064-.318Zm.716-10.1a.686.686,0,0,1,.27-.048H15.586a.9.9,0,0,1,.286.048l-5.41,4.63-.716.573L8.33,10.48,6.914,9.319,6.2,8.746ZM.8,15.158l5.426-5.2,2.1,1.7,2.1-1.7,5.426,5.2a.764.764,0,0,1-.27.048H1.058A.721.721,0,0,1,.8,15.158ZM11.146,9.366l5.378-4.614a.95.95,0,0,1,.048.3v9.165a1.219,1.219,0,0,1-.048.318Z" transform="translate(-0.072 -4.068)" />
</svg>
