<svg xmlns="http://www.w3.org/2000/svg" width="15.75" height="16.055" viewBox="0 0 15.75 16.055">
  <path id="Icon_ionic-logo-google" data-name="Icon ionic-logo-google" d="M19.314,10.172l-.081-.344h-7.47V12.99h4.462a4.467,4.467,0,0,1-4.37,3.358,5.226,5.226,0,0,1-3.517-1.4,5.021,5.021,0,0,1-1.5-3.544,5.178,5.178,0,0,1,1.471-3.54A5,5,0,0,1,11.805,6.5a4.557,4.557,0,0,1,2.972,1.158L17.024,5.42a7.949,7.949,0,0,0-5.292-2.038h0a8.182,8.182,0,0,0-5.79,2.355,8.149,8.149,0,0,0-2.285,5.671,8.067,8.067,0,0,0,2.2,5.578,8.38,8.38,0,0,0,6.041,2.451,7.452,7.452,0,0,0,5.428-2.281A8.014,8.014,0,0,0,19.406,11.6,9.243,9.243,0,0,0,19.314,10.172Z" transform="translate(-3.656 -3.382)" />
</svg>
