<svg xmlns="http://www.w3.org/2000/svg" width="19" height="19" viewBox="0 0 19 19">
  <g id="Icon_ionic-ios-home" data-name="Icon ionic-ios-home" transform="translate(-3.374 -3.375)">
    <path id="Path_3441" data-name="Path 3441" d="M14.139,7.3a.178.178,0,0,0-.227,0L6.818,12.986a.192.192,0,0,0-.068.141V23.611a.091.091,0,0,0,.091.091h4.911a.091.091,0,0,0,.091-.091V17.229a.091.091,0,0,1,.091-.091h4.184a.091.091,0,0,1,.091.091v6.381a.091.091,0,0,0,.091.091H21.21a.091.091,0,0,0,.091-.091V13.127a.184.184,0,0,0-.068-.141Z" transform="translate(-1.154 -1.327)"/>
    <path id="Path_3442" data-name="Path 3442" d="M22.126,10.6,13.5,3.6a.992.992,0,0,0-1.251,0l-3.758,3.1V4.74A.092.092,0,0,0,8.4,4.648H5.657a.092.092,0,0,0-.091.093V9.007l-1.95,1.624a.653.653,0,0,0-.055.967.631.631,0,0,0,.452.19.638.638,0,0,0,.4-.143l8.4-6.849a.081.081,0,0,1,.059-.019.109.109,0,0,1,.059.019l8.4,6.821a.638.638,0,0,0,.4.143.628.628,0,0,0,.452-.19.647.647,0,0,0,.192-.5A.66.66,0,0,0,22.126,10.6Z" transform="translate(0)"/>
  </g>
</svg>
