<svg xmlns="http://www.w3.org/2000/svg" width="14.25" height="17.1" viewBox="0 0 14.25 17.1">
  <path id="Icon_map-locksmith" data-name="Icon map-locksmith" d="M17.195,7.845h-.77V4.77A4.361,4.361,0,0,0,12.373.72H9a4.285,4.285,0,0,0-3.97,4.05V7.845H4.174a.764.764,0,0,0-.574.591v9.069c0,.213.332.314.574.314H17.195c.242,0,.656-.1.656-.314V8.436a.871.871,0,0,0-.656-.591ZM12.4,16.4H8.966l.721-3.551a1.842,1.842,0,0,1-.721-1.462,1.745,1.745,0,0,1,1.719-1.743A1.7,1.7,0,0,1,12.4,11.323a1.981,1.981,0,0,1-.721,1.531Zm1.527-8.55H7.519V4.77A1.457,1.457,0,0,1,9.03,3.214h3.309A1.522,1.522,0,0,1,13.931,4.77Z" transform="translate(-3.6 -0.72)" />
</svg>
