<svg xmlns="http://www.w3.org/2000/svg" width="14.25" height="16.286" viewBox="0 0 14.25 16.286">
  <path id="Icon_awesome-bell" data-name="Icon awesome-bell" d="M7.125,16.286A2.035,2.035,0,0,0,9.16,14.25H5.09A2.035,2.035,0,0,0,7.125,16.286Zm6.851-4.762c-.615-.66-1.764-1.654-1.764-4.908a5.023,5.023,0,0,0-4.07-4.935V1.018a1.017,1.017,0,1,0-2.034,0v.663a5.023,5.023,0,0,0-4.07,4.935c0,3.254-1.15,4.247-1.764,4.908A.994.994,0,0,0,0,12.214a1.019,1.019,0,0,0,1.021,1.018H13.229a1.019,1.019,0,0,0,1.021-1.018.993.993,0,0,0-.274-.691Z" transform="translate(0)" />
</svg>
