<svg xmlns="http://www.w3.org/2000/svg" width="20.13" height="16.94" viewBox="0 0 20.13 16.94">
  <path id="Path_3559" data-name="Path 3559" d="M12.148,9.256a3.658,3.658,0,0,1,1.7,2.717,2.951,2.951,0,1,0-1.7-2.717ZM10.213,15.3a2.952,2.952,0,1,0-2.953-2.952A2.952,2.952,0,0,0,10.213,15.3Zm1.252.2H8.961a3.785,3.785,0,0,0-3.78,3.78v3.064l.008.048.211.066a17.207,17.207,0,0,0,5.14.829,10.551,10.551,0,0,0,4.488-.843l.2-.1h.021V19.282A3.783,3.783,0,0,0,11.466,15.5Zm4.884-3.048H13.864a3.638,3.638,0,0,1-1.123,2.534,4.492,4.492,0,0,1,3.208,4.3v.944a10.172,10.172,0,0,0,3.962-.832l.2-.1h.021V16.234A3.784,3.784,0,0,0,16.35,12.454Zm-11.317-.2A2.933,2.933,0,0,0,6.6,11.8a3.654,3.654,0,0,1,1.373-2.33c0-.055.008-.11.008-.166a2.952,2.952,0,1,0-2.952,2.952Zm2.651,2.735a3.641,3.641,0,0,1-1.122-2.52c-.092-.007-.183-.014-.277-.014H3.78A3.784,3.784,0,0,0,0,16.234V19.3l.008.047.211.067a17.723,17.723,0,0,0,4.257.8v-.925A4.493,4.493,0,0,1,7.684,14.988Z" transform="translate(0 -6.348)" />
</svg>
