<svg xmlns="http://www.w3.org/2000/svg" width="19.5" height="19.5" viewBox="0 0 19.5 19.5">
  <path id="Icon_awesome-plus" data-name="Icon awesome-plus" d="M18.107,9.911H11.839V3.643A1.393,1.393,0,0,0,10.446,2.25H9.054A1.393,1.393,0,0,0,7.661,3.643V9.911H1.393A1.393,1.393,0,0,0,0,11.3V12.7a1.393,1.393,0,0,0,1.393,1.393H7.661v6.268A1.393,1.393,0,0,0,9.054,21.75h1.393a1.393,1.393,0,0,0,1.393-1.393V14.089h6.268A1.393,1.393,0,0,0,19.5,12.7V11.3A1.393,1.393,0,0,0,18.107,9.911Z" transform="translate(0 -2.25)" fill="#fff"/>
</svg>
