<svg xmlns="http://www.w3.org/2000/svg" width="16.734" height="29.366" viewBox="0 0 16.734 29.366">
  <g id="Group_2" data-name="Group 2" transform="translate(-248.248 86.144)">
    <path id="Path_307" data-name="Path 307" d="M263.711-83.133v23.392H250.43V-83.133a3.008,3.008,0,0,1,1.713-2.717,2.987,2.987,0,0,1,1.3-.294H260.7a3,3,0,0,1,1.347.317A3.01,3.01,0,0,1,263.711-83.133Z" transform="translate(-0.455 0)" />
    <path id="Path_308" data-name="Path 308" d="M263.711-84.363v7.739H250.43v-7.739a1.779,1.779,0,0,1,1.713-1.779l.066,0h9.721c.039,0,.078,0,.117,0A1.78,1.78,0,0,1,263.711-84.363Z" transform="translate(-0.455 0)" fill="#686868"/>
    <path id="Rectangle_9" data-name="Rectangle 9" d="M.978,0H15.756a.978.978,0,0,1,.978.978V3.6a0,0,0,0,1,0,0H0a0,0,0,0,1,0,0V.978A.978.978,0,0,1,.978,0Z" transform="translate(248.248 -60.38)" />
    <rect id="Rectangle_10" data-name="Rectangle 10" width="9.905" height="2.951" transform="translate(251.688 -84.017)" fill="#231f20"/>
    <path id="Path_309" data-name="Path 309" d="M256.577-83.457l6.753,2.951v-2.951Z" transform="translate(-1.737 -0.56)" fill="#414042"/>
    <path id="Path_310" data-name="Path 310" d="M255.155-83.457l5.252,2.951h-1.351l-4.5-2.951Z" transform="translate(-1.315 -0.56)" fill="#414042"/>
    <path id="Path_311" data-name="Path 311" d="M266.773-84.362v23.984H265.11v-25.76A1.78,1.78,0,0,1,266.773-84.362Z" transform="translate(-3.517 -0.001)" fill="#d1d3d4" style="mix-blend-mode: multiply;isolation: isolate"/>
    <path id="Path_312" data-name="Path 312" d="M252.143-86.142v25.763H250.43V-84.363A1.779,1.779,0,0,1,252.143-86.142Z" transform="translate(-0.455 0)" fill="#d1d3d4" style="mix-blend-mode: multiply;isolation: isolate"/>
    <rect id="Rectangle_11" data-name="Rectangle 11" width="1.501" height="5.44" transform="translate(252.476 -75.588)" fill="#262262"/>
    <rect id="Rectangle_12" data-name="Rectangle 12" width="0.525" height="2.72" transform="translate(252.964 -75.588)" fill="#e6e7e8"/>
    <rect id="Rectangle_13" data-name="Rectangle 13" width="1.075" height="2.451" transform="translate(252.689 -73.112)" fill="#e6e7e8"/>
    <rect id="Rectangle_14" data-name="Rectangle 14" width="0.911" height="0.911" transform="translate(252.57 -80.109)" />
    <rect id="Rectangle_15" data-name="Rectangle 15" width="0.911" height="0.911" transform="translate(254.357 -80.109)" />
    <rect id="Rectangle_16" data-name="Rectangle 16" width="0.911" height="0.911" transform="translate(256.144 -80.109)" />
    <rect id="Rectangle_17" data-name="Rectangle 17" width="0.911" height="0.911" transform="translate(257.931 -80.109)" />
    <rect id="Rectangle_18" data-name="Rectangle 18" width="0.911" height="0.911" transform="translate(259.719 -80.109)" />
    <rect id="Rectangle_19" data-name="Rectangle 19" width="8.06" height="1.126" transform="translate(252.57 -78.702)" fill="#d1d3d4" style="mix-blend-mode: multiply;isolation: isolate"/>
    <path id="Path_313" data-name="Path 313" d="M251.1-62.889a2.411,2.411,0,0,1-2.408-2.408V-78.147a1.376,1.376,0,0,1,1.376-1.375v.375a1,1,0,0,0-1,1V-65.3a2.035,2.035,0,0,0,2.032,2.032,2.034,2.034,0,0,0,2.032-2.032V-69.28h.375V-65.3A2.41,2.41,0,0,1,251.1-62.889Z" transform="translate(-0.093 -1.381)" fill="#0f0f38"/>
    <path id="Path_314" data-name="Path 314" d="M262.339-70.6v.633H257.98V-70.6Zm.265-.265h-4.89V-69.7h4.89v-1.163Z" transform="translate(-1.974 -3.187)" fill="#0f0f38"/>
    <rect id="Rectangle_20" data-name="Rectangle 20" width="4.89" height="1.164" transform="translate(255.74 -75.588)" fill="#d1d3d4" style="mix-blend-mode: multiply;isolation: isolate"/>
  </g>
</svg>
