<svg id="settings" xmlns="http://www.w3.org/2000/svg" width="18.003" height="18.003" viewBox="0 0 18.003 18.003">
  <path id="Path_3448" data-name="Path 3448" d="M21,18a3,3,0,1,0,3,3A3,3,0,0,0,21,18Z" transform="translate(-11.999 -11.999)" />
  <path id="Path_3449" data-name="Path 3449" d="M17.077,7H16.4a7.615,7.615,0,0,0-.753-1.819l.475-.475a.928.928,0,0,0,0-1.311L14.608,1.877a.95.95,0,0,0-1.311,0l-.475.475A7.62,7.62,0,0,0,11,1.6V.927A.928.928,0,0,0,10.075,0H7.928A.928.928,0,0,0,7,.927V1.6a7.616,7.616,0,0,0-1.819.753l-.475-.475a.949.949,0,0,0-1.311,0L1.877,3.4a.928.928,0,0,0,0,1.311l.475.475A7.607,7.607,0,0,0,1.6,7H.927A.928.928,0,0,0,0,7.928v2.146A.928.928,0,0,0,.927,11H1.6a7.616,7.616,0,0,0,.753,1.819l-.475.475a.928.928,0,0,0,0,1.311L3.4,16.126a.949.949,0,0,0,1.311,0l.475-.475A7.629,7.629,0,0,0,7,16.4v.672A.928.928,0,0,0,7.928,18h2.147A.928.928,0,0,0,11,17.076V16.4a7.616,7.616,0,0,0,1.819-.753l.475.475a.949.949,0,0,0,1.311,0l1.518-1.518a.928.928,0,0,0,0-1.311l-.475-.475A7.629,7.629,0,0,0,16.4,11h.673A.928.928,0,0,0,18,10.075V7.928A.928.928,0,0,0,17.077,7ZM13,9A4,4,0,1,1,9,5,4.005,4.005,0,0,1,13,9Z"/>
</svg>
