<svg xmlns="http://www.w3.org/2000/svg" width="19.674" height="16.06" viewBox="0 0 19.674 16.06">
  <g id="sign-out-option" transform="translate(0 -41.115)">
    <g id="Group_5188" data-name="Group 5188" transform="translate(0 41.115)">
      <path id="Path_3560" data-name="Path 3560" d="M8.03,55.971A.327.327,0,0,1,8,55.8c.008-.046-.021-.084-.088-.113s-.1-.052-.1-.069-.048-.029-.144-.038l-.144-.013H3.613a1.932,1.932,0,0,1-1.418-.59,1.933,1.933,0,0,1-.59-1.418V44.728a1.933,1.933,0,0,1,.59-1.418,1.933,1.933,0,0,1,1.418-.59H7.629a.379.379,0,0,0,.257-.081.417.417,0,0,0,.125-.245,2.111,2.111,0,0,0,.038-.295,3.122,3.122,0,0,0-.006-.333q-.012-.2-.012-.251a.407.407,0,0,0-.4-.4H3.613a3.481,3.481,0,0,0-2.553,1.06A3.481,3.481,0,0,0,0,44.728v8.833a3.48,3.48,0,0,0,1.06,2.553,3.48,3.48,0,0,0,2.553,1.061H7.629a.381.381,0,0,0,.257-.081.417.417,0,0,0,.125-.245,2.115,2.115,0,0,0,.038-.295,3.119,3.119,0,0,0-.006-.332Q8.03,56.021,8.03,55.971Z" transform="translate(0 -41.115)" />
      <path id="Path_3561" data-name="Path 3561" d="M124.25,57.31l-6.826-6.826a.8.8,0,0,0-1.368.565v3.614h-5.621a.814.814,0,0,0-.8.8v4.818a.814.814,0,0,0,.8.8h5.621V64.7a.8.8,0,0,0,1.368.565l6.826-6.825a.788.788,0,0,0,0-1.129Z" transform="translate(-104.815 -49.845)" />
    </g>
  </g>
</svg>
