<svg id="steering-wheel_1_" data-name="steering-wheel (1)" xmlns="http://www.w3.org/2000/svg" width="19" height="19" viewBox="0 0 19 19">
  <g id="Group_5084" data-name="Group 5084">
    <g id="Group_5083" data-name="Group 5083">
      <path id="Path_3443" data-name="Path 3443" d="M9.5,0A9.5,9.5,0,1,0,19,9.5,9.537,9.537,0,0,0,9.5,0Zm0,2.227a7.324,7.324,0,0,1,6.976,5.235.552.552,0,0,0-.282-.3A16.379,16.379,0,0,0,9.5,5.6,16.379,16.379,0,0,0,2.806,7.159a.552.552,0,0,0-.282.3A7.324,7.324,0,0,1,9.5,2.227ZM2.37,10.933a.557.557,0,0,0,.459.408l1.337.186a3.916,3.916,0,0,1,3.306,3.306l.186,1.337a.552.552,0,0,0,.329.427A7.336,7.336,0,0,1,2.37,10.933Zm7.13.237A1.67,1.67,0,1,1,11.17,9.5,1.672,1.672,0,0,1,9.5,11.17ZM11.012,16.6a.552.552,0,0,0,.329-.427l.186-1.337a3.916,3.916,0,0,1,3.306-3.306l1.337-.186a.557.557,0,0,0,.459-.408A7.336,7.336,0,0,1,11.012,16.6Z"/>
    </g>
  </g>
  <g id="Group_5086" data-name="Group 5086" transform="translate(8.973 8.973)">
    <g id="Group_5085" data-name="Group 5085">
      <path id="Path_3444" data-name="Path 3444" d="M241.527,241a.527.527,0,1,0,.527.527A.528.528,0,0,0,241.527,241Z" transform="translate(-241 -241)" />
    </g>
  </g>
</svg>
